<?xml version="1.0" encoding="utf-8"?>
<!-- Generator: Adobe Illustrator 28.0.0, SVG Export Plug-In . SVG Version: 6.00 Build 0)  -->
<svg version="1.1" id="_Слой_1" xmlns="http://www.w3.org/2000/svg" xmlns:xlink="http://www.w3.org/1999/xlink" x="0px"
	 y="0px" viewBox="0 0 78.6 64.2" style="enable-background:new 0 0 78.6 64.2;" xml:space="preserve">
<style type="text/css">
	.st0{fill:none;stroke:#6A7F93;stroke-width:6;stroke-miterlimit:10;}
</style>
<path class="st0" d="M7.7,6.9L7.5,56.7L9.2,58c4.7,3.7,11.4,3.3,15.6-0.9l0,0V6.6l0,0C20.2,2,12.4,2.3,7.7,6.9L7.7,6.9L7.7,6.9z"/>
<path class="st0" d="M40.2,4.7c0,0-7.9,6.9-1.9,19.2c0.4,0.9,1,1.7,1.7,2.4l0,0h29.2l0.6-0.6c5.9-5.8,5.9-15.2,0.1-21.1l0,0
	L40.2,4.7L40.2,4.7L40.2,4.7L40.2,4.7z"/>
<path class="st0" d="M43.4,39.6c0,0-6.2,4.3-1.5,12.1c0.3,0.6,0.8,1.1,1.3,1.5l0,0h22.9l0.5-0.4c4.6-3.6,4.7-9.6,0.1-13.2l0,0
	L43.4,39.6L43.4,39.6L43.4,39.6L43.4,39.6z"/>
</svg>
