<?xml version="1.0" encoding="UTF-8"?>
<svg id="_Слой_1" data-name=" Слой 1" xmlns="http://www.w3.org/2000/svg" viewBox="0 0 83.12 70.77">
  <defs>
    <style>
      .cls-1 {
        fill: none;
        stroke: #6a7f93;
        stroke-miterlimit: 10;
        stroke-width: 6px;
      }
    </style>
  </defs>
  <path class="cls-1" d="m11.65,42.4v10.02c0,3.41,2.77,6.18,6.18,6.18h49.76c3.41,0,6.18-2.77,6.18-6.18v-10.02c0-4.62-4.88-7.6-8.99-5.5l-19.26,9.85c-1.77.9-3.86.9-5.62,0l-19.26-9.85c-4.11-2.1-8.99.88-8.99,5.5Z"/>
  <path class="cls-1" d="m67.69,13.28l-.91-1.75c-.81-1.55-2.41-2.53-4.16-2.53H27.39c-1.85,0-3.52,1.09-4.28,2.77l-1.04,2.33"/>
  <line class="cls-1" x1="31.59" y1="20.48" x2="57.18" y2="20.48"/>
  <line class="cls-1" x1="37.94" y1="29.48" x2="52.06" y2="29.48"/>
</svg>