<?xml version="1.0" encoding="utf-8"?>
<!-- Generator: Adobe Illustrator 28.0.0, SVG Export Plug-In . SVG Version: 6.00 Build 0)  -->
<svg version="1.1" id="_Слой_1" xmlns="http://www.w3.org/2000/svg" xmlns:xlink="http://www.w3.org/1999/xlink" x="0px"
	 y="0px" viewBox="0 0 78.6 67.6" style="enable-background:new 0 0 78.6 67.6;" xml:space="preserve">
<style type="text/css">
	.st0{fill:none;stroke:#8E9EB4;stroke-width:6;stroke-miterlimit:10;}
	.st1{fill:#FFFFFF;stroke:#8E9EB4;stroke-width:4;stroke-miterlimit:10;}
</style>
<ellipse class="st0" cx="39.5" cy="30.5" rx="16.8" ry="17.9"/>
<path class="st1" d="M22.7,40.1C22.5,46.1,33,53.6,41,51.2c5.6-1.7,5-7.3,10.9-8.9c5.6-1.5,13.5,1.6,14.3,5.2
	c1,4.9-11.3,14.4-23.6,15.6C30.9,64.1,17.4,57.8,11,48.4c-6.6-9.7-4.9-23.7,1.4-26c5-1.8,14.3,3.3,14.6,8
	C27.2,34.4,22.9,35.7,22.7,40.1z"/>
<polyline class="st0" points="39.5,17.5 39.5,29.7 50.9,29.7 "/>
<circle class="st1" cx="14.6" cy="27.1" r="0.9"/>
<circle class="st1" cx="19.7" cy="31.2" r="1.5"/>
<ellipse class="st1" cx="55.5" cy="47.5" rx="1.9" ry="0.9"/>
</svg>
