<?xml version="1.0" encoding="UTF-8"?>
<svg id="_Слой_1" data-name=" Слой 1" xmlns="http://www.w3.org/2000/svg" viewBox="0 0 78.6 67.6">
  <defs>
    <style>
      .cls-1 {
        fill: #fff;
        stroke-width: 4px;
      }

      .cls-1, .cls-2 {
        stroke: #6a7f93;
        stroke-miterlimit: 10;
      }

      .cls-2 {
        fill: none;
        stroke-width: 6px;
      }
    </style>
  </defs>
  <ellipse class="cls-2" cx="39.5" cy="30.5" rx="16.8" ry="17.9"/>
  <path class="cls-1" d="m22.7,40.1c-.2,6,10.3,13.5,18.3,11.1,5.6-1.7,5-7.3,10.9-8.9,5.6-1.5,13.5,1.6,14.3,5.2,1,4.9-11.3,14.4-23.6,15.6-11.7,1-25.2-5.3-31.6-14.7-6.6-9.7-4.9-23.7,1.4-26,5-1.8,14.3,3.3,14.6,8,.2,4-4.1,5.3-4.3,9.7Z"/>
  <polyline class="cls-2" points="39.5 17.5 39.5 29.7 50.9 29.7"/>
  <circle class="cls-1" cx="14.6" cy="27.1" r=".9"/>
  <circle class="cls-1" cx="19.7" cy="31.2" r="1.5"/>
  <ellipse class="cls-1" cx="55.5" cy="47.5" rx="1.9" ry=".9"/>
</svg>