<?xml version="1.0" encoding="utf-8"?>
<svg id="svg2" viewBox="11.453 267.714 329.637 372.222" xmlns="http://www.w3.org/2000/svg">
  <desc>Source: openclipart.org/detail/209545</desc>
  <defs>
    <radialGradient id="radialGradient50" gradientUnits="userSpaceOnUse" cy="13.127" cx="23.404" gradientTransform="matrix(9.477364, 10.273408, 9.367074, -10.407683, -215.77565, 326.421863)" r="14.286">
      <stop id="stop52" style="stop-color: #ff0008" offset="0"/>
      <stop id="stop54" style="stop-color: #800005" offset="1"/>
    </radialGradient>
  </defs>
  <path id="path56" style="fill: url('#radialGradient50');" d="M 185.636 372.915 C 196.331 371.992 211.227 369.878 230.352 366.674 C 245.718 365.283 259.005 367.383 270.154 372.915 C 288.339 381.345 301.605 397.43 309.956 421.148 C 321.132 451.917 319.087 487.104 303.728 526.685 C 289.674 562.106 273.916 585.853 256.193 597.939 C 247.295 604.032 230.976 608.953 207.259 612.625 C 177.426 617.758 153.247 618.482 134.592 614.719 C 100.081 608.712 74.479 590.064 57.7 558.833 C 34.919 515.515 26.483 476.892 32.56 442.848 C 39.052 411.156 57.238 388.297 87.049 374.337 C 107.571 365.04 125.694 362.222 141.602 365.978 C 163.94 371.049 178.606 373.392 185.636 372.915 Z"/>
  <path id="path222" style="fill: rgb(255, 255, 255);" d="M 96.878 426.786 C 107.111 427.17 114.523 430.224 119.203 435.826 C 123.89 440.512 124.836 445.341 122.023 450.497 C 119.203 454.714 113.665 456.83 105.235 456.83 C 97.283 456.354 90.329 454.254 84.236 450.497 C 78.706 446.769 77.519 441.847 80.814 435.826 C 84.472 429.734 89.869 426.786 96.878 426.786 Z"/>
  <path id="path224" style="fill: rgb(255, 145, 145);" d="M 163.94 393.914 L 172.363 392.517 C 178.363 392.032 183.519 392.032 187.736 392.517 C 194.214 392.97 207.714 389.697 228.236 382.759 C 219.827 390.64 209.836 396.485 198.204 400.163 C 187.972 403.906 180.003 405.78 174.395 405.78 C 166.98 406.234 159.24 404.388 151.372 400.163 C 146.217 397.43 140.684 392.75 134.592 386.181 L 126.93 376.432 L 137.404 382.759 C 146.217 387.352 155.107 391.117 163.94 393.914 Z"/>
  <path id="path226" style="fill: rgb(128, 0, 5);" d="M 140.193 384.789 C 148.098 386.181 156.747 384.789 166.036 380.648 C 172.584 380.181 175.089 379.009 173.692 377.126 C 174.152 376.189 174.706 375.274 175.089 374.337 C 176.503 372.455 177.669 371.992 178.606 372.915 C 180.486 373.846 186.105 373.626 195.385 372.291 L 191.869 377.126 C 189.995 380.401 190.714 382.978 193.994 384.859 C 200.065 387.602 208.196 387.843 218.407 385.485 L 206.54 390.392 C 193.994 395.548 183.519 398.367 175.089 398.828 C 168.614 399.304 160.887 397.195 152.067 392.517 L 140.193 384.789 Z"/>
  <path id="path230" style="fill: rgb(131, 150, 2);" d="M 197.571 342.094 C 206.932 335.004 217.315 328.384 228.707 322.279 C 239.084 316.566 247.619 310.012 254.341 302.64 C 256.026 300.824 256.868 298.676 256.868 296.162 L 257.879 296.374 C 264.55 297.77 267.255 298.958 265.903 299.912 C 259.512 303.136 254.684 306.819 251.314 310.992 C 249.63 312.787 243.122 316.912 231.734 323.297 C 218.667 330.412 209.133 336.52 203.125 341.674 C 186.684 356.012 177.817 369.234 176.469 381.331 C 175.805 388.722 177.485 394.133 181.522 397.631 C 176.138 398.868 172.161 398.934 169.461 397.841 L 167.435 395.95 C 170.467 396.374 172.32 396.582 172.988 396.582 C 175.633 396.719 176.469 394.899 175.465 391.149 C 173.841 384.036 173.34 377.441 173.998 371.306 C 174.964 363.097 182.876 353.356 197.571 342.094 Z"/>
</svg>